<svg xmlns="http://www.w3.org/2000/svg" viewBox="0 0 64 64" width="64" height="64">
  <defs>
    <linearGradient id="fv-stroke" x1="0" y1="0" x2="1" y2="1">
      <stop offset="0%" stop-color="#c4b5fd"/>
      <stop offset="100%" stop-color="#7c3aed"/>
    </linearGradient>
    <radialGradient id="fv-core" cx="50%" cy="50%" r="50%">
      <stop offset="0%" stop-color="#ffffff"/>
      <stop offset="60%" stop-color="#c4b5fd"/>
      <stop offset="100%" stop-color="#a78bfa" stop-opacity="0.4"/>
    </radialGradient>
  </defs>
  <!-- BG -->
  <rect x="0" y="0" width="64" height="64" rx="12" fill="#0a0a0a"/>
  <!-- Simplified 8 neural arms (scaled from 100→64 domain) -->
  <g fill="none" stroke="url(#fv-stroke)" stroke-width="4.5" stroke-linecap="round" stroke-linejoin="round">
    <path d="M 22 10 L 22 22 Q 22 27 27 27 L 32 27"/>
    <path d="M 42 10 L 42 22 Q 42 27 37 27 L 32 27"/>
    <path d="M 54 22 L 42 22 Q 37 22 37 27 L 37 32"/>
    <path d="M 54 42 L 42 42 Q 37 42 37 37 L 37 32"/>
    <path d="M 42 54 L 42 42 Q 42 37 37 37 L 32 37"/>
    <path d="M 22 54 L 22 42 Q 22 37 27 37 L 32 37"/>
    <path d="M 10 42 L 22 42 Q 27 42 27 37 L 27 32"/>
    <path d="M 10 22 L 22 22 Q 27 22 27 27 L 27 32"/>
  </g>
  <!-- Central glow -->
  <circle cx="32" cy="32" r="5.5" fill="url(#fv-core)"/>
  <circle cx="32" cy="32" r="2" fill="#ffffff"/>
</svg>
